<?xml version="1.0" standalone="no"?>
<!DOCTYPE svg PUBLIC "-//W3C//DTD SVG 20010904//EN"
 "http://www.w3.org/TR/2001/REC-SVG-20010904/DTD/svg10.dtd">
<svg version="1.0" xmlns="http://www.w3.org/2000/svg"
 width="83.000000pt" height="87.000000pt" viewBox="0 0 83.000000 87.000000"
 preserveAspectRatio="xMidYMid meet">

<g transform="translate(0.000000,87.000000) scale(0.100000,-0.100000)"
fill="#000000" stroke="none">
<path d="M202 735 l3 -125 -95 3 -95 2 -3 -62 c-3 -62 -2 -63 23 -63 20 0 25
5 26 28 1 15 3 20 6 10 3 -11 10 -15 20 -11 10 4 14 2 10 -4 -9 -14 16 -23 64
-23 l39 0 0 -170 0 -170 25 0 25 0 0 170 c0 94 4 170 8 170 4 0 6 -67 4 -150
-4 -138 0 -191 14 -177 3 3 5 72 5 154 -1 81 3 155 8 163 7 10 11 -43 13 -157
2 -94 1 -171 -2 -171 -36 3 -40 -3 -40 -52 0 -47 2 -50 25 -50 16 0 25 6 25
16 0 8 5 12 10 9 6 -3 10 -19 10 -36 0 -24 4 -29 25 -29 14 0 25 5 25 12 0 6
3 8 7 5 3 -4 12 -2 20 5 11 9 13 8 11 -3 -2 -12 32 -14 205 -17 l207 -2 0 58
0 59 -160 -5 -160 -5 0 32 c0 28 -3 31 -30 31 l-30 0 0 155 0 155 190 0 190 0
0 63 0 62 -190 -3 -190 -3 0 126 0 125 -37 -1 c-21 0 -59 -4 -85 -8 -26 -4
-45 -4 -42 1 3 4 -1 8 -9 8 -12 0 -15 -23 -16 -122 -1 -67 -4 -124 -6 -127 -3
-2 -5 53 -5 122 l0 127 -26 0 -25 0 3 -125z m93 85 c3 -5 1 -10 -4 -10 -6 0
-11 5 -11 10 0 6 2 10 4 10 3 0 8 -4 11 -10z m-8 -157 c-2 -27 -3 -5 -3 47 0
52 1 74 3 48 2 -27 2 -69 0 -95z m-187 -62 c0 -12 -28 -22 -34 -12 -3 5 -3 11
1 15 9 9 33 7 33 -3z m257 -470 c-1 -15 -4 -17 -14 -9 -7 5 -10 14 -7 19 10
16 23 9 21 -10z m49 -83 c-10 -6 -22 -6 -26 -2 -5 5 3 10 18 11 22 1 24 0 8
-9z"/>
</g>
</svg>
